<svg width="312" height="104" viewBox="0 0 312 104" fill="none" xmlns="http://www.w3.org/2000/svg">
<g clip-path="url(#clip0_427_20616)">
<path d="M0 102H307V103H0V102Z" fill="#E9E9E9"/>
<path d="M1.6427e-06 102L-4.74282e-06 0L0.951069 -3.90811e-08L0.951075 102L1.6427e-06 102Z" fill="#E9E9E9"/>
<path d="M122 40V102H307V3L122 40Z" fill="url(#paint0_linear_427_20616)" fill-opacity="0.18"/>
<path d="M122 40V102H307V3L122 40Z" fill="url(#paint1_linear_427_20616)"/>
<g clip-path="url(#clip1_427_20616)">
<path d="M20.0503 84.6636L0.951194 98L0.951172 102H122V40L99.2963 64.3551L91.1807 59.4019L80.6783 66.3364L73.9949 50.9813L64.4472 53.4579L52.9899 49L30.5528 82.6822L20.0503 84.6636Z" fill="url(#paint2_linear_427_20616)" fill-opacity="0.24"/>
<path d="M122 40L98.9071 64.5145L90.9713 59.2254L80.6549 66.2775L74.3063 51.1156L64.7834 53.5838L52.8798 49L30.6597 82.8497L20.3433 84.9653L0.951218 98" stroke="#929292"/>
</g>
<path d="M122 40L307.5 4" stroke="#119907" stroke-linecap="round" stroke-dasharray="4 4"/>
<path d="M122 40L307 40" stroke="#F2BB05" stroke-linecap="round" stroke-dasharray="4 4"/>
<path d="M122 40L307 76" stroke="#E7544D" stroke-linecap="round" stroke-dasharray="4 4"/>
<circle cx="4" cy="4" r="3" transform="matrix(1 0 0.0129489 0.999916 303 0)" fill="#119907" stroke="white" stroke-width="2"/>
<circle cx="4" cy="4" r="3" transform="matrix(1 0 0.0129489 0.999916 303 36)" fill="#F2BB05" stroke="white" stroke-width="2"/>
<circle cx="4" cy="4" r="3" transform="matrix(1 0 0.0129489 0.999916 303 72)" fill="#E7544D" stroke="white" stroke-width="2"/>
<circle cx="122" cy="40" r="3" fill="#929292" stroke="white" stroke-width="2"/>
<path d="M193.089 85.1797V93H192.052V85.1797H193.089ZM196.365 88.6978V89.5464H192.863V88.6978H196.365ZM196.897 85.1797V86.0283H192.863V85.1797H196.897ZM197.601 90.1587V90.0352C197.601 89.6162 197.661 89.2277 197.783 88.8696C197.905 88.508 198.08 88.1947 198.31 87.9297C198.539 87.6611 198.816 87.4535 199.142 87.3066C199.468 87.1562 199.833 87.0811 200.238 87.0811C200.646 87.0811 201.013 87.1562 201.339 87.3066C201.668 87.4535 201.948 87.6611 202.177 87.9297C202.41 88.1947 202.587 88.508 202.708 88.8696C202.83 89.2277 202.891 89.6162 202.891 90.0352V90.1587C202.891 90.5776 202.83 90.9661 202.708 91.3242C202.587 91.6823 202.41 91.9956 202.177 92.2642C201.948 92.5291 201.67 92.7368 201.344 92.8872C201.022 93.034 200.657 93.1074 200.249 93.1074C199.84 93.1074 199.473 93.034 199.147 92.8872C198.822 92.7368 198.542 92.5291 198.31 92.2642C198.08 91.9956 197.905 91.6823 197.783 91.3242C197.661 90.9661 197.601 90.5776 197.601 90.1587ZM198.594 90.0352V90.1587C198.594 90.4487 198.628 90.7227 198.696 90.9805C198.764 91.2347 198.866 91.4603 199.002 91.6572C199.142 91.8542 199.316 92.0099 199.523 92.1245C199.731 92.2355 199.973 92.291 200.249 92.291C200.521 92.291 200.759 92.2355 200.963 92.1245C201.171 92.0099 201.342 91.8542 201.479 91.6572C201.615 91.4603 201.717 91.2347 201.785 90.9805C201.856 90.7227 201.892 90.4487 201.892 90.1587V90.0352C201.892 89.7487 201.856 89.4784 201.785 89.2241C201.717 88.9663 201.613 88.7389 201.473 88.542C201.337 88.3415 201.165 88.1839 200.958 88.0693C200.753 87.9548 200.514 87.8975 200.238 87.8975C199.966 87.8975 199.726 87.9548 199.518 88.0693C199.314 88.1839 199.142 88.3415 199.002 88.542C198.866 88.7389 198.764 88.9663 198.696 89.2241C198.628 89.4784 198.594 89.7487 198.594 90.0352ZM205.131 88.1016V93H204.137V87.1885H205.104L205.131 88.1016ZM206.946 87.1562L206.941 88.0801C206.859 88.0622 206.78 88.0514 206.705 88.0479C206.633 88.0407 206.551 88.0371 206.458 88.0371C206.228 88.0371 206.026 88.0729 205.851 88.1445C205.675 88.2161 205.527 88.3164 205.405 88.4453C205.283 88.5742 205.186 88.7282 205.115 88.9072C205.047 89.0827 205.002 89.276 204.98 89.4873L204.701 89.6484C204.701 89.2975 204.735 88.9681 204.803 88.6602C204.875 88.3522 204.984 88.0801 205.131 87.8438C205.278 87.6038 205.464 87.4176 205.689 87.2852C205.919 87.1491 206.191 87.0811 206.506 87.0811C206.577 87.0811 206.66 87.09 206.753 87.1079C206.846 87.1222 206.91 87.1383 206.946 87.1562ZM210.169 93.1074C209.764 93.1074 209.397 93.0394 209.068 92.9033C208.742 92.7637 208.461 92.5685 208.225 92.3179C207.992 92.0672 207.813 91.77 207.688 91.4263C207.562 91.0825 207.5 90.7065 207.5 90.2983V90.0728C207.5 89.6001 207.569 89.1794 207.709 88.8105C207.849 88.4382 208.038 88.123 208.278 87.8652C208.518 87.6074 208.79 87.4123 209.095 87.2798C209.399 87.1473 209.714 87.0811 210.04 87.0811C210.455 87.0811 210.813 87.1527 211.114 87.2959C211.419 87.4391 211.667 87.6396 211.861 87.8975C212.054 88.1517 212.197 88.4525 212.291 88.7998C212.384 89.1436 212.43 89.5195 212.43 89.9277V90.3735H208.09V89.5625H211.437V89.4873C211.422 89.2295 211.368 88.9788 211.275 88.7354C211.186 88.4919 211.043 88.2913 210.846 88.1338C210.649 87.9762 210.38 87.8975 210.04 87.8975C209.814 87.8975 209.607 87.9458 209.417 88.0425C209.227 88.1356 209.064 88.2752 208.928 88.4614C208.792 88.6476 208.687 88.875 208.611 89.1436C208.536 89.4121 208.499 89.7218 208.499 90.0728V90.2983C208.499 90.5741 208.536 90.8337 208.611 91.0771C208.69 91.3171 208.803 91.5283 208.95 91.7109C209.1 91.8936 209.281 92.0368 209.492 92.1406C209.707 92.2445 209.951 92.2964 210.223 92.2964C210.574 92.2964 210.871 92.2248 211.114 92.0815C211.358 91.9383 211.571 91.7467 211.753 91.5068L212.355 91.9849C212.23 92.1746 212.07 92.3555 211.877 92.5273C211.684 92.6992 211.445 92.8389 211.163 92.9463C210.883 93.0537 210.552 93.1074 210.169 93.1074ZM215.916 92.291C216.152 92.291 216.371 92.2427 216.571 92.146C216.772 92.0493 216.937 91.9168 217.065 91.7485C217.194 91.5767 217.268 91.3815 217.286 91.1631H218.231C218.213 91.5068 218.097 91.8273 217.882 92.1245C217.671 92.4181 217.393 92.6562 217.049 92.8389C216.706 93.0179 216.328 93.1074 215.916 93.1074C215.479 93.1074 215.098 93.0304 214.772 92.8765C214.45 92.7225 214.181 92.5112 213.966 92.2427C213.755 91.9741 213.596 91.6662 213.488 91.3188C213.384 90.9679 213.333 90.5973 213.333 90.207V89.9814C213.333 89.5911 213.384 89.2223 213.488 88.875C213.596 88.5241 213.755 88.2144 213.966 87.9458C214.181 87.6772 214.45 87.466 214.772 87.312C215.098 87.158 215.479 87.0811 215.916 87.0811C216.371 87.0811 216.768 87.1742 217.108 87.3604C217.449 87.543 217.715 87.7936 217.909 88.1123C218.106 88.4274 218.213 88.7855 218.231 89.1865H217.286C217.268 88.9466 217.2 88.73 217.082 88.5366C216.967 88.3433 216.809 88.1893 216.609 88.0747C216.412 87.9565 216.181 87.8975 215.916 87.8975C215.612 87.8975 215.356 87.9583 215.148 88.0801C214.944 88.1982 214.781 88.3594 214.659 88.5635C214.541 88.764 214.455 88.9878 214.401 89.2349C214.351 89.4784 214.326 89.7272 214.326 89.9814V90.207C214.326 90.4613 214.351 90.7119 214.401 90.959C214.451 91.2061 214.536 91.4299 214.654 91.6304C214.776 91.8309 214.938 91.992 215.143 92.1138C215.35 92.2319 215.608 92.291 215.916 92.291ZM222.775 92.0063V89.0146C222.775 88.7855 222.728 88.5868 222.635 88.4185C222.546 88.2466 222.41 88.1141 222.227 88.021C222.044 87.9279 221.819 87.8813 221.55 87.8813C221.3 87.8813 221.079 87.9243 220.89 88.0103C220.703 88.0962 220.557 88.209 220.449 88.3486C220.345 88.4883 220.293 88.6387 220.293 88.7998H219.3C219.3 88.5921 219.354 88.3862 219.461 88.1821C219.568 87.978 219.722 87.7936 219.923 87.6289C220.127 87.4606 220.37 87.3281 220.653 87.2314C220.94 87.1312 221.258 87.0811 221.609 87.0811C222.032 87.0811 222.404 87.1527 222.727 87.2959C223.052 87.4391 223.307 87.6558 223.489 87.9458C223.675 88.2323 223.769 88.5921 223.769 89.0254V91.7324C223.769 91.9258 223.785 92.1317 223.817 92.3501C223.853 92.5685 223.905 92.7565 223.973 92.9141V93H222.936C222.886 92.8854 222.847 92.7332 222.818 92.5435C222.789 92.3501 222.775 92.1711 222.775 92.0063ZM222.947 89.4766L222.958 90.1748H221.953C221.67 90.1748 221.418 90.1981 221.196 90.2446C220.974 90.2876 220.788 90.3538 220.637 90.4434C220.487 90.5329 220.372 90.6457 220.293 90.7817C220.215 90.9142 220.175 91.07 220.175 91.249C220.175 91.4316 220.216 91.5981 220.299 91.7485C220.381 91.8989 220.505 92.0189 220.669 92.1084C220.838 92.1943 221.044 92.2373 221.287 92.2373C221.591 92.2373 221.86 92.1729 222.093 92.0439C222.326 91.915 222.51 91.7575 222.646 91.5713C222.786 91.3851 222.861 91.2043 222.872 91.0288L223.296 91.5068C223.271 91.6572 223.203 91.8237 223.092 92.0063C222.981 92.189 222.832 92.3644 222.646 92.5327C222.463 92.6974 222.245 92.8353 221.991 92.9463C221.74 93.0537 221.457 93.1074 221.142 93.1074C220.748 93.1074 220.403 93.0304 220.105 92.8765C219.812 92.7225 219.583 92.5166 219.418 92.2588C219.257 91.9974 219.176 91.7056 219.176 91.3833C219.176 91.0718 219.237 90.7979 219.359 90.5615C219.481 90.3216 219.656 90.1229 219.885 89.9653C220.114 89.8042 220.39 89.6825 220.712 89.6001C221.035 89.5177 221.395 89.4766 221.792 89.4766H222.947ZM228.715 91.4585C228.715 91.3153 228.683 91.1828 228.619 91.061C228.558 90.9357 228.431 90.8229 228.237 90.7227C228.048 90.6188 227.761 90.5293 227.378 90.4541C227.056 90.3861 226.764 90.3055 226.502 90.2124C226.245 90.1193 226.024 90.0065 225.842 89.874C225.663 89.7415 225.525 89.5858 225.428 89.4067C225.332 89.2277 225.283 89.0182 225.283 88.7783C225.283 88.5492 225.333 88.3325 225.434 88.1284C225.537 87.9243 225.682 87.7435 225.869 87.5859C226.058 87.4284 226.286 87.3049 226.551 87.2153C226.816 87.1258 227.111 87.0811 227.437 87.0811C227.903 87.0811 228.3 87.1634 228.629 87.3281C228.959 87.4928 229.211 87.7131 229.387 87.9888C229.562 88.2609 229.65 88.5635 229.65 88.8965H228.656C228.656 88.7354 228.608 88.5796 228.511 88.4292C228.418 88.2752 228.28 88.1481 228.098 88.0479C227.919 87.9476 227.698 87.8975 227.437 87.8975C227.161 87.8975 226.938 87.9404 226.766 88.0264C226.597 88.1087 226.474 88.2144 226.395 88.3433C226.32 88.4722 226.282 88.6082 226.282 88.7515C226.282 88.8589 226.3 88.9556 226.336 89.0415C226.375 89.1239 226.443 89.2008 226.54 89.2725C226.637 89.3405 226.773 89.4049 226.948 89.4658C227.124 89.5267 227.347 89.5876 227.62 89.6484C228.096 89.7559 228.488 89.8848 228.796 90.0352C229.104 90.1855 229.333 90.37 229.483 90.5884C229.634 90.8068 229.709 91.0718 229.709 91.3833C229.709 91.6375 229.655 91.8703 229.548 92.0815C229.444 92.2928 229.292 92.4754 229.091 92.6294C228.894 92.7798 228.658 92.8979 228.382 92.9839C228.11 93.0662 227.804 93.1074 227.464 93.1074C226.952 93.1074 226.519 93.0161 226.164 92.8335C225.81 92.6509 225.541 92.4146 225.358 92.1245C225.176 91.8345 225.084 91.5283 225.084 91.2061H226.083C226.098 91.4782 226.177 91.6948 226.32 91.856C226.463 92.0135 226.639 92.1263 226.846 92.1943C227.054 92.2588 227.26 92.291 227.464 92.291C227.736 92.291 227.963 92.2552 228.146 92.1836C228.332 92.112 228.474 92.0135 228.57 91.8882C228.667 91.7629 228.715 91.6196 228.715 91.4585ZM233.447 87.1885V87.9512H230.305V87.1885H233.447ZM231.369 85.7759H232.362V91.5605C232.362 91.7575 232.393 91.9061 232.454 92.0063C232.514 92.1066 232.593 92.1729 232.69 92.2051C232.787 92.2373 232.89 92.2534 233.001 92.2534C233.084 92.2534 233.17 92.2463 233.259 92.2319C233.352 92.214 233.422 92.1997 233.469 92.189L233.474 93C233.395 93.0251 233.292 93.0483 233.163 93.0698C233.037 93.0949 232.885 93.1074 232.706 93.1074C232.463 93.1074 232.239 93.0591 232.035 92.9624C231.831 92.8657 231.668 92.7046 231.546 92.479C231.428 92.2498 231.369 91.9419 231.369 91.5552V85.7759Z" fill="#1F1F1F"/>
<path d="M54.2222 89.9331H52.1328V89.0898H54.2222C54.6268 89.0898 54.9544 89.0254 55.2051 88.8965C55.4557 88.7676 55.6383 88.5885 55.7529 88.3594C55.8711 88.1302 55.9302 87.8688 55.9302 87.5752C55.9302 87.3066 55.8711 87.0542 55.7529 86.8179C55.6383 86.5815 55.4557 86.3918 55.2051 86.2485C54.9544 86.1017 54.6268 86.0283 54.2222 86.0283H52.3745V93H51.3379V85.1797H54.2222C54.813 85.1797 55.3125 85.2817 55.7207 85.4858C56.1289 85.6899 56.4386 85.9728 56.6499 86.3345C56.8612 86.6925 56.9668 87.1025 56.9668 87.5645C56.9668 88.0658 56.8612 88.4937 56.6499 88.8481C56.4386 89.2026 56.1289 89.473 55.7207 89.6592C55.3125 89.8418 54.813 89.9331 54.2222 89.9331ZM61.4893 92.0063V89.0146C61.4893 88.7855 61.4427 88.5868 61.3496 88.4185C61.2601 88.2466 61.124 88.1141 60.9414 88.021C60.7588 87.9279 60.5332 87.8813 60.2646 87.8813C60.014 87.8813 59.7938 87.9243 59.604 88.0103C59.4178 88.0962 59.271 88.209 59.1636 88.3486C59.0597 88.4883 59.0078 88.6387 59.0078 88.7998H58.0142C58.0142 88.5921 58.0679 88.3862 58.1753 88.1821C58.2827 87.978 58.4367 87.7936 58.6372 87.6289C58.8413 87.4606 59.0848 87.3281 59.3677 87.2314C59.6541 87.1312 59.9728 87.0811 60.3237 87.0811C60.7463 87.0811 61.1187 87.1527 61.4409 87.2959C61.7668 87.4391 62.021 87.6558 62.2036 87.9458C62.3898 88.2323 62.4829 88.5921 62.4829 89.0254V91.7324C62.4829 91.9258 62.499 92.1317 62.5312 92.3501C62.5671 92.5685 62.619 92.7565 62.687 92.9141V93H61.6504C61.6003 92.8854 61.5609 92.7332 61.5322 92.5435C61.5036 92.3501 61.4893 92.1711 61.4893 92.0063ZM61.6611 89.4766L61.6719 90.1748H60.6675C60.3846 90.1748 60.1322 90.1981 59.9102 90.2446C59.6882 90.2876 59.502 90.3538 59.3516 90.4434C59.2012 90.5329 59.0866 90.6457 59.0078 90.7817C58.929 90.9142 58.8896 91.07 58.8896 91.249C58.8896 91.4316 58.9308 91.5981 59.0132 91.7485C59.0955 91.8989 59.2191 92.0189 59.3838 92.1084C59.5521 92.1943 59.758 92.2373 60.0015 92.2373C60.3058 92.2373 60.5744 92.1729 60.8071 92.0439C61.0399 91.915 61.2243 91.7575 61.3604 91.5713C61.5 91.3851 61.5752 91.2043 61.5859 91.0288L62.0103 91.5068C61.9852 91.6572 61.9172 91.8237 61.8062 92.0063C61.6951 92.189 61.5465 92.3644 61.3604 92.5327C61.1777 92.6974 60.9593 92.8353 60.7051 92.9463C60.4544 93.0537 60.1715 93.1074 59.8564 93.1074C59.4626 93.1074 59.117 93.0304 58.8198 92.8765C58.5262 92.7225 58.297 92.5166 58.1323 92.2588C57.9712 91.9974 57.8906 91.7056 57.8906 91.3833C57.8906 91.0718 57.9515 90.7979 58.0732 90.5615C58.195 90.3216 58.3704 90.1229 58.5996 89.9653C58.8288 89.8042 59.1045 89.6825 59.4268 89.6001C59.749 89.5177 60.1089 89.4766 60.5063 89.4766H61.6611ZM67.4297 91.4585C67.4297 91.3153 67.3975 91.1828 67.333 91.061C67.2721 90.9357 67.145 90.8229 66.9517 90.7227C66.7619 90.6188 66.4754 90.5293 66.0923 90.4541C65.77 90.3861 65.4782 90.3055 65.2168 90.2124C64.959 90.1193 64.7388 90.0065 64.5562 89.874C64.3771 89.7415 64.2393 89.5858 64.1426 89.4067C64.0459 89.2277 63.9976 89.0182 63.9976 88.7783C63.9976 88.5492 64.0477 88.3325 64.1479 88.1284C64.2518 87.9243 64.3968 87.7435 64.583 87.5859C64.7728 87.4284 65.0002 87.3049 65.2651 87.2153C65.5301 87.1258 65.8255 87.0811 66.1514 87.0811C66.6169 87.0811 67.0143 87.1634 67.3438 87.3281C67.6732 87.4928 67.9256 87.7131 68.1011 87.9888C68.2765 88.2609 68.3643 88.5635 68.3643 88.8965H67.3706C67.3706 88.7354 67.3223 88.5796 67.2256 88.4292C67.1325 88.2752 66.9946 88.1481 66.812 88.0479C66.633 87.9476 66.4128 87.8975 66.1514 87.8975C65.8757 87.8975 65.6519 87.9404 65.48 88.0264C65.3117 88.1087 65.1882 88.2144 65.1094 88.3433C65.0342 88.4722 64.9966 88.6082 64.9966 88.7515C64.9966 88.8589 65.0145 88.9556 65.0503 89.0415C65.0897 89.1239 65.1577 89.2008 65.2544 89.2725C65.3511 89.3405 65.4871 89.4049 65.6626 89.4658C65.8381 89.5267 66.0618 89.5876 66.334 89.6484C66.8102 89.7559 67.2023 89.8848 67.5103 90.0352C67.8182 90.1855 68.0474 90.37 68.1978 90.5884C68.3481 90.8068 68.4233 91.0718 68.4233 91.3833C68.4233 91.6375 68.3696 91.8703 68.2622 92.0815C68.1584 92.2928 68.0062 92.4754 67.8057 92.6294C67.6087 92.7798 67.3724 92.8979 67.0967 92.9839C66.8245 93.0662 66.5184 93.1074 66.1782 93.1074C65.6662 93.1074 65.2329 93.0161 64.8784 92.8335C64.5239 92.6509 64.2554 92.4146 64.0728 92.1245C63.8901 91.8345 63.7988 91.5283 63.7988 91.2061H64.7979C64.8122 91.4782 64.891 91.6948 65.0342 91.856C65.1774 92.0135 65.3529 92.1263 65.5605 92.1943C65.7682 92.2588 65.9741 92.291 66.1782 92.291C66.4504 92.291 66.6777 92.2552 66.8604 92.1836C67.0465 92.112 67.188 92.0135 67.2847 91.8882C67.3813 91.7629 67.4297 91.6196 67.4297 91.4585ZM72.1616 87.1885V87.9512H69.0195V87.1885H72.1616ZM70.083 85.7759H71.0767V91.5605C71.0767 91.7575 71.1071 91.9061 71.168 92.0063C71.2288 92.1066 71.3076 92.1729 71.4043 92.2051C71.501 92.2373 71.6048 92.2534 71.7158 92.2534C71.7982 92.2534 71.8841 92.2463 71.9736 92.2319C72.0667 92.214 72.1366 92.1997 72.1831 92.189L72.1885 93C72.1097 93.0251 72.0059 93.0483 71.877 93.0698C71.7516 93.0949 71.5994 93.1074 71.4204 93.1074C71.1769 93.1074 70.9531 93.0591 70.749 92.9624C70.5449 92.8657 70.382 92.7046 70.2603 92.479C70.1421 92.2498 70.083 91.9419 70.083 91.5552V85.7759Z" fill="#929292"/>
</g>
<defs>
<linearGradient id="paint0_linear_427_20616" x1="126.5" y1="-1.5" x2="126.5" y2="102" gradientUnits="userSpaceOnUse">
<stop stop-color="#6AC64C"/>
<stop offset="0.494792" stop-color="#F2BB05"/>
<stop offset="1" stop-color="#EA3323"/>
</linearGradient>
<linearGradient id="paint1_linear_427_20616" x1="307" y1="56" x2="258.101" y2="53.7819" gradientUnits="userSpaceOnUse">
<stop stop-color="white"/>
<stop offset="1" stop-color="white" stop-opacity="0"/>
</linearGradient>
<linearGradient id="paint2_linear_427_20616" x1="64.1974" y1="49" x2="88.0485" y2="107.19" gradientUnits="userSpaceOnUse">
<stop stop-color="#949495"/>
<stop offset="1" stop-color="#949495" stop-opacity="0"/>
</linearGradient>
<clipPath id="clip0_427_20616">
<rect width="312" height="104" fill="white"/>
</clipPath>
<clipPath id="clip1_427_20616">
<rect width="122.688" height="83" fill="white" transform="translate(0 19)"/>
</clipPath>
</defs>
</svg>
