<svg width="130" height="28" viewBox="0 0 130 28" fill="none" xmlns="http://www.w3.org/2000/svg">
<path fill-rule="evenodd" clip-rule="evenodd" d="M63.0099 6.33008L66.9961 5.2312V8.61942L63.0099 9.7183V6.33008Z" fill="#FFA500"/>
<path d="M1.25641 6.25002L5.60507 5.05957V21.6344H1.25641V6.25002ZM19.0135 21.6344H15.0272V15.5905C15.0272 14.1253 15.1178 12.3854 13.2152 12.3854C11.3127 12.3854 10.9503 13.4843 10.9503 14.9495V21.6344H6.96403V10.0045L10.7691 8.99723V11.195C11.1821 10.526 11.7559 9.97366 12.4371 9.58936C13.1183 9.20506 13.8847 9.00136 14.6648 8.99723C17.8357 8.99723 19.0135 10.8287 19.0135 13.759V21.6344ZM22.8185 21.6344L18.7417 9.36352H22.9091L25.1741 17.6051L27.439 9.36352H31.4253L27.3484 21.6344H22.8185ZM39.3978 13.759C39.279 13.2082 38.9838 12.7123 38.558 12.3481C38.1321 11.9839 37.5994 11.7717 37.0423 11.7444C35.2304 11.7444 34.415 13.3927 34.415 15.1326L39.3978 13.759ZM37.4047 19.345C38.2615 19.3452 39.1069 19.1472 39.8764 18.7663C40.6458 18.3853 41.3188 17.8315 41.844 17.1473L42.9311 20.0776C41.2876 21.3319 39.2828 22.0073 37.2235 22.0007C33.3278 22.0007 30.5193 19.7113 30.5193 15.4989C30.5067 14.6338 30.6675 13.7751 30.9921 12.9745C31.3166 12.1739 31.7981 11.448 32.4076 10.8405C33.017 10.233 33.7419 9.7565 34.5384 9.43972C35.3349 9.12293 36.1867 8.97241 37.0423 8.99723C40.8474 8.99723 43.2029 11.5613 43.2029 15.4074L34.7774 17.7883C35.0115 18.2833 35.3868 18.6961 35.8551 18.9735C36.3233 19.251 36.863 19.3804 37.4047 19.345ZM50.9037 14.0338C51.8197 14.1543 52.7084 14.4331 53.531 14.8579C53.9838 15.1606 54.3594 15.5673 54.6271 16.0448C54.8948 16.5222 55.0469 17.0569 55.0712 17.6051C55.0712 20.9018 52.0814 22.0007 49.1823 22.0007C46.2832 22.0007 43.8371 21.0849 43.3841 18.3377L46.7362 17.3304C46.7591 17.6314 46.8406 17.9248 46.9761 18.1938C47.1116 18.4629 47.2984 18.7021 47.5258 18.8979C47.7531 19.0936 48.0165 19.242 48.3008 19.3345C48.5851 19.4269 48.8847 19.4616 49.1823 19.4366C49.9977 19.4366 51.1755 19.0703 51.1755 18.063C51.1755 17.0557 49.9071 16.9641 49.1823 16.781L47.6422 16.4147C45.649 16.0484 43.6559 15.4074 43.6559 12.7517C43.6559 10.0961 46.8268 8.99723 49.1823 8.99723C51.5379 8.99723 54.3464 9.72981 54.7088 12.2023L51.2661 13.118C51.0849 12.0191 50.3601 11.6529 49.0917 11.6529C47.8234 11.6529 47.6422 11.836 47.6422 12.5686C47.6422 13.3012 49.0011 13.6675 49.6353 13.8506L50.9037 14.0338ZM59.6916 12.0191V17.5136C59.6916 18.063 59.8728 18.5209 60.4164 18.6124C61.1371 18.7687 61.8853 18.7372 62.5907 18.5209L61.7753 21.6344H59.9634C56.6113 21.6344 55.7053 20.7186 55.7053 17.3304V7.16576L59.6916 6.06688V9.36352H62.5907L61.8659 12.0191H59.6916ZM63.1343 10.0961L67.1206 8.99723V21.6344H63.1343V10.0961ZM76.5427 15.5905C76.5427 14.1253 76.6333 12.3854 74.6401 12.3854C74.3184 12.3831 73.9998 12.4501 73.7057 12.5819C73.4116 12.7137 73.1486 12.9074 72.9343 13.15C72.72 13.3926 72.5593 13.6786 72.4629 13.9888C72.3665 14.2991 72.3366 14.6266 72.3752 14.9495V21.6344H68.4795V10.0045L72.2846 8.99723V11.195C72.6976 10.526 73.2714 9.97366 73.9526 9.58936C74.6338 9.20506 75.4002 9.00136 76.1803 8.99723C79.3512 8.99723 80.529 10.8287 80.529 13.759V21.6344H76.5427V15.5905ZM87.6861 12.1107C85.8742 12.1107 85.3306 13.6675 85.3306 15.1326C85.3306 16.5978 85.9648 18.063 87.5956 18.063C89.2263 18.063 90.0417 16.781 90.0417 15.2242C90.0417 13.6675 89.4075 12.1107 87.6861 12.1107ZM87.5049 25.9383C85.1494 25.9383 82.6127 25.2973 81.7973 22.6417L85.3306 21.7259C85.502 22.2161 85.8218 22.6392 86.2447 22.9351C86.6675 23.231 87.1719 23.3847 87.6861 23.3743C89.3169 23.3743 89.9511 22.0006 89.9511 20.4439V19.2534C89.6156 19.8224 89.1371 20.2915 88.5643 20.6131C87.9915 20.9348 87.3447 21.0975 86.6896 21.0849C83.0657 21.0849 81.3443 18.5209 81.3443 15.0411C81.3443 11.5613 83.2469 8.99723 86.6896 8.99723C87.3536 8.99381 88.0065 9.17041 88.5801 9.50862C89.1537 9.84684 89.6271 10.3343 89.9511 10.9203V10.0045L93.7562 8.99723V20.1692C93.7562 24.0153 90.9476 25.9383 87.5049 25.9383Z" fill="white"/>
<path d="M95.6184 5.21094H101.524C102.367 5.21094 103.178 5.29294 103.955 5.45694C104.749 5.62094 105.444 5.89975 106.04 6.29336C106.635 6.67056 107.106 7.18717 107.454 7.84318C107.818 8.48279 108 9.28641 108 10.254C108 11.3528 107.809 12.2385 107.429 12.9109C107.049 13.5833 106.536 14.1081 105.891 14.4853C105.246 14.8461 104.493 15.0921 103.633 15.2233C102.789 15.3545 101.904 15.4201 100.978 15.4201H98.7447V22.628H95.6184V5.21094ZM100.63 12.7633C101.077 12.7633 101.54 12.7469 102.02 12.7141C102.5 12.6813 102.938 12.5829 103.335 12.4189C103.749 12.2549 104.079 12.0089 104.327 11.6809C104.592 11.3528 104.724 10.8936 104.724 10.3032C104.724 9.76202 104.609 9.33561 104.377 9.024C104.146 8.696 103.848 8.44999 103.484 8.28599C103.12 8.10559 102.715 7.99079 102.268 7.94159C101.821 7.89238 101.391 7.86778 100.978 7.86778H98.7447V12.7633H100.63Z" fill="url(#paint0_linear_79_9563)"/>
<path d="M108.886 10.8198H111.863V12.6895H111.913C112.243 12.0007 112.715 11.4676 113.327 11.0904C113.939 10.7132 114.642 10.5246 115.436 10.5246C115.618 10.5246 115.792 10.541 115.957 10.5738C116.139 10.6066 116.503 10.6968 116.503 10.6968L115.064 13.3291C115.064 13.3291 113.807 13.4603 113.377 13.7227C112.963 13.9687 112.64 14.2557 112.409 14.5837C112.194 14.9117 112.045 15.2397 111.962 15.5677C111.896 15.8957 111.863 16.1417 111.863 16.3057V22.628H108.886V10.8198Z" fill="url(#paint1_linear_79_9563)"/>
<path d="M115.482 16.7239C115.482 15.7891 115.647 14.9445 115.978 14.1901C116.325 13.4193 116.788 12.7633 117.367 12.2221C117.946 11.6809 118.633 11.2626 119.427 10.9674C120.221 10.6722 121.064 10.5246 121.958 10.5246C122.851 10.5246 123.695 10.6722 124.489 10.9674C125.283 11.2626 125.969 11.6809 126.548 12.2221C127.127 12.7633 127.582 13.4193 127.913 14.1901C128.26 14.9445 128.434 15.7891 128.434 16.7239C128.434 17.6588 128.26 18.5116 127.913 19.2824C127.582 20.0368 127.127 20.6846 126.548 21.2258C125.969 21.767 125.283 22.1852 124.489 22.4804C123.695 22.7756 122.851 22.9233 121.958 22.9233C121.064 22.9233 120.221 22.7756 119.427 22.4804C118.633 22.1852 117.946 21.767 117.367 21.2258C116.788 20.6846 116.325 20.0368 115.978 19.2824C115.647 18.5116 115.482 17.6588 115.482 16.7239ZM118.459 16.7239C118.459 17.1831 118.534 17.626 118.682 18.0524C118.848 18.4788 119.079 18.856 119.377 19.184C119.692 19.512 120.064 19.7744 120.494 19.9712C120.924 20.168 121.412 20.2664 121.958 20.2664C122.504 20.2664 122.992 20.168 123.422 19.9712C123.852 19.7744 124.216 19.512 124.513 19.184C124.828 18.856 125.059 18.4788 125.208 18.0524C125.374 17.626 125.456 17.1831 125.456 16.7239C125.456 16.2647 125.374 15.8219 125.208 15.3955C125.059 14.9691 124.828 14.5919 124.513 14.2639C124.216 13.9359 123.852 13.6735 123.422 13.4767C122.992 13.2799 122.504 13.1815 121.958 13.1815C121.412 13.1815 120.924 13.2799 120.494 13.4767C120.064 13.6735 119.692 13.9359 119.377 14.2639C119.079 14.5919 118.848 14.9691 118.682 15.3955C118.534 15.8219 118.459 16.2647 118.459 16.7239Z" fill="url(#paint2_linear_79_9563)"/>
<defs>
<linearGradient id="paint0_linear_79_9563" x1="95.6184" y1="8.5566" x2="109.423" y2="29.161" gradientUnits="userSpaceOnUse">
<stop stop-color="#FF6B00"/>
<stop offset="1" stop-color="#FFA500"/>
</linearGradient>
<linearGradient id="paint1_linear_79_9563" x1="95.6184" y1="8.5566" x2="109.423" y2="29.161" gradientUnits="userSpaceOnUse">
<stop stop-color="#FF6B00"/>
<stop offset="1" stop-color="#FFA500"/>
</linearGradient>
<linearGradient id="paint2_linear_79_9563" x1="95.6184" y1="8.5566" x2="109.423" y2="29.161" gradientUnits="userSpaceOnUse">
<stop stop-color="#FF6B00"/>
<stop offset="1" stop-color="#FFA500"/>
</linearGradient>
</defs>
</svg>
