<svg width="96" height="22" viewBox="0 0 96 22" fill="none" xmlns="http://www.w3.org/2000/svg">
<path fill-rule="evenodd" clip-rule="evenodd" d="M44.6667 4.99713L47.5228 4.21222V6.63237L44.6667 7.41729V4.99713Z" fill="#FFA500"/>
<path d="M0.32959 5.60698L3.44534 4.75665V16.5958H0.32959V5.60698ZM13.0522 16.5958H10.1961V12.2788C10.1961 11.2322 10.261 9.98942 8.89789 9.98942C7.53476 9.98942 7.27511 10.7743 7.27511 11.8209V16.5958H4.41901V8.28877L7.14529 7.56926V9.13909C7.44119 8.66127 7.85233 8.26672 8.34039 7.99222C8.82846 7.71772 9.37755 7.57221 9.93648 7.56926C12.2084 7.56926 13.0522 8.87746 13.0522 10.9706V16.5958ZM15.7785 16.5958L12.8575 7.8309H15.8434L17.4662 13.7178L19.089 7.8309H21.9451L19.0241 16.5958H15.7785ZM27.6573 10.9706C27.5721 10.5771 27.3606 10.2229 27.0555 9.96275C26.7504 9.70262 26.3688 9.55107 25.9696 9.53155C24.6714 9.53155 24.0872 10.7089 24.0872 11.9517L27.6573 10.9706ZM26.2292 14.9605C26.8431 14.9606 27.4489 14.8192 28.0002 14.5472C28.5514 14.2751 29.0337 13.8795 29.4099 13.3907L30.1888 15.4838C29.0113 16.3797 27.5749 16.8622 26.0994 16.8574C23.3082 16.8574 21.296 15.2222 21.296 12.2133C21.287 11.5954 21.4022 10.982 21.6347 10.4102C21.8672 9.83832 22.2122 9.31981 22.6489 8.88588C23.0856 8.45196 23.6049 8.11161 24.1756 7.88533C24.7463 7.65906 25.3566 7.55154 25.9696 7.56926C28.6959 7.56926 30.3836 9.40073 30.3836 12.1479L24.3468 13.8486C24.5145 14.2022 24.7835 14.497 25.119 14.6952C25.4545 14.8934 25.8412 14.9858 26.2292 14.9605ZM35.901 11.1668C36.5574 11.2529 37.1941 11.452 37.7835 11.7555C38.1079 11.9717 38.377 12.2622 38.5688 12.6032C38.7606 12.9443 38.8696 13.3262 38.887 13.7178C38.887 16.0725 36.7449 16.8574 34.6677 16.8574C32.5906 16.8574 30.8379 16.2033 30.5134 14.241L32.9151 13.5215C32.9315 13.7365 32.9899 13.9461 33.087 14.1383C33.1841 14.3304 33.3179 14.5013 33.4808 14.6412C33.6437 14.781 33.8324 14.887 34.0361 14.953C34.2398 15.019 34.4545 15.0438 34.6677 15.026C35.2519 15.026 36.0958 14.7643 36.0958 14.0448C36.0958 13.3253 35.187 13.2599 34.6677 13.1291L33.5642 12.8674C32.1362 12.6058 30.7081 12.1479 30.7081 10.2511C30.7081 8.35418 32.98 7.56926 34.6677 7.56926C36.3554 7.56926 38.3677 8.09254 38.6273 9.8586L36.1607 10.5127C36.0309 9.72778 35.5116 9.46614 34.6028 9.46614C33.6941 9.46614 33.5642 9.59696 33.5642 10.1202C33.5642 10.6435 34.5379 10.9052 34.9923 11.036L35.901 11.1668ZM42.1974 9.72778V13.6524C42.1974 14.0448 42.3273 14.3719 42.7167 14.4373C43.2331 14.5489 43.7692 14.5264 44.2746 14.3719L43.6904 16.5958H42.3922C39.9905 16.5958 39.3413 15.9417 39.3413 13.5215V6.26107L42.1974 5.47616V7.8309H44.2746L43.7553 9.72778H42.1974ZM44.6641 8.35418L47.5202 7.56926V16.5958H44.6641V8.35418ZM54.271 12.2788C54.271 11.2322 54.3359 9.98942 52.9078 9.98942C52.6773 9.98774 52.4491 10.0356 52.2383 10.1297C52.0276 10.2239 51.8391 10.3622 51.6856 10.5355C51.5321 10.7088 51.4169 10.9131 51.3479 11.1347C51.2788 11.3563 51.2574 11.5903 51.285 11.8209V16.5958H48.4939V8.28877L51.2201 7.56926V9.13909C51.516 8.66127 51.9272 8.26672 52.4152 7.99222C52.9033 7.71772 53.4524 7.57221 54.0113 7.56926C56.2832 7.56926 57.1271 8.87746 57.1271 10.9706V16.5958H54.271V12.2788ZM62.2551 9.79319C60.9568 9.79319 60.5674 10.9052 60.5674 11.9517C60.5674 12.9983 61.0218 14.0448 62.1902 14.0448C63.3586 14.0448 63.9428 13.1291 63.9428 12.0171C63.9428 10.9052 63.4884 9.79319 62.2551 9.79319ZM62.1252 19.67C60.4375 19.67 58.62 19.2122 58.0358 17.3153L60.5674 16.6612C60.6901 17.0113 60.9193 17.3135 61.2223 17.5249C61.5252 17.7363 61.8866 17.846 62.2551 17.8386C63.4235 17.8386 63.8779 16.8574 63.8779 15.7455V14.8951C63.6375 15.3015 63.2947 15.6366 62.8843 15.8663C62.4739 16.0961 62.0105 16.2124 61.541 16.2033C58.9446 16.2033 57.7113 14.3719 57.7113 11.8863C57.7113 9.40073 59.0744 7.56926 61.541 7.56926C62.0168 7.56682 62.4846 7.69296 62.8956 7.93455C63.3066 8.17613 63.6458 8.52432 63.8779 8.94287V8.28877L66.6041 7.56926V15.5492C66.6041 18.2964 64.5919 19.67 62.1252 19.67Z" fill="white"/>
<path d="M67.939 4.86456H72.17C72.7744 4.86456 73.3552 4.92314 73.9122 5.04028C74.4811 5.15743 74.9789 5.35657 75.4055 5.63772C75.8322 5.90715 76.17 6.27616 76.4188 6.74474C76.6796 7.2016 76.8099 7.77561 76.8099 8.46677C76.8099 9.25164 76.6736 9.88422 76.4011 10.3645C76.1285 10.8448 75.7611 11.2197 75.2989 11.4891C74.8366 11.7468 74.2974 11.9225 73.6811 12.0163C73.0767 12.11 72.4426 12.1568 71.7789 12.1568H70.1789V17.3054H67.939V4.86456ZM71.53 10.2591C71.85 10.2591 72.1819 10.2474 72.5256 10.2239C72.8693 10.2005 73.1833 10.1302 73.4678 10.0131C73.7641 9.89594 74.0011 9.72022 74.1789 9.48593C74.3685 9.25164 74.4633 8.92363 74.4633 8.50191C74.4633 8.11533 74.3804 7.81076 74.2144 7.58818C74.0485 7.35389 73.8352 7.17818 73.5744 7.06103C73.3137 6.93217 73.0233 6.85017 72.7033 6.81503C72.3833 6.77988 72.0752 6.76231 71.7789 6.76231H70.1789V10.2591H71.53Z" fill="url(#paint0_linear_77_8730)"/>
<path d="M77.4447 8.87092H79.578V10.2064H79.6135C79.8505 9.71436 80.1883 9.33364 80.6268 9.06421C81.0653 8.79478 81.569 8.66006 82.1379 8.66006C82.2683 8.66006 82.3927 8.67177 82.5112 8.6952C82.6416 8.71863 82.9024 8.78306 82.9024 8.78306L81.8713 10.6632C81.8713 10.6632 80.9705 10.757 80.6624 10.9444C80.3661 11.1201 80.135 11.3251 79.9691 11.5594C79.815 11.7937 79.7083 12.028 79.6491 12.2623C79.6017 12.4966 79.578 12.6723 79.578 12.7894V17.3054H77.4447V8.87092Z" fill="url(#paint1_linear_77_8730)"/>
<path d="M82.1707 13.0881C82.1707 12.4204 82.2892 11.8171 82.5262 11.2782C82.7751 10.7277 83.107 10.2591 83.5218 9.87251C83.9366 9.48593 84.4284 9.18721 84.9973 8.97635C85.5662 8.76549 86.1706 8.66006 86.8106 8.66006C87.4506 8.66006 88.0551 8.76549 88.6239 8.97635C89.1928 9.18721 89.6847 9.48593 90.0995 9.87251C90.5143 10.2591 90.8402 10.7277 91.0772 11.2782C91.3261 11.8171 91.4506 12.4204 91.4506 13.0881C91.4506 13.7559 91.3261 14.365 91.0772 14.9156C90.8402 15.4545 90.5143 15.9172 90.0995 16.3038C89.6847 16.6903 89.1928 16.9891 88.6239 17.1999C88.0551 17.4108 87.4506 17.5162 86.8106 17.5162C86.1706 17.5162 85.5662 17.4108 84.9973 17.1999C84.4284 16.9891 83.9366 16.6903 83.5218 16.3038C83.107 15.9172 82.7751 15.4545 82.5262 14.9156C82.2892 14.365 82.1707 13.7559 82.1707 13.0881ZM84.304 13.0881C84.304 13.4161 84.3573 13.7324 84.464 14.037C84.5825 14.3416 84.7484 14.611 84.9618 14.8453C85.1869 15.0796 85.4536 15.267 85.7618 15.4076C86.0699 15.5482 86.4195 15.6185 86.8106 15.6185C87.2017 15.6185 87.5514 15.5482 87.8595 15.4076C88.1676 15.267 88.4284 15.0796 88.6417 14.8453C88.8669 14.611 89.0328 14.3416 89.1395 14.037C89.258 13.7324 89.3173 13.4161 89.3173 13.0881C89.3173 12.7601 89.258 12.4438 89.1395 12.1393C89.0328 11.8347 88.8669 11.5653 88.6417 11.331C88.4284 11.0967 88.1676 10.9092 87.8595 10.7687C87.5514 10.6281 87.2017 10.5578 86.8106 10.5578C86.4195 10.5578 86.0699 10.6281 85.7618 10.7687C85.4536 10.9092 85.1869 11.0967 84.9618 11.331C84.7484 11.5653 84.5825 11.8347 84.464 12.1393C84.3573 12.4438 84.304 12.7601 84.304 13.0881Z" fill="url(#paint2_linear_77_8730)"/>
<defs>
<linearGradient id="paint0_linear_77_8730" x1="67.939" y1="7.25432" x2="77.788" y2="21.9997" gradientUnits="userSpaceOnUse">
<stop stop-color="#FF6B00"/>
<stop offset="1" stop-color="#FFA500"/>
</linearGradient>
<linearGradient id="paint1_linear_77_8730" x1="67.939" y1="7.25432" x2="77.788" y2="21.9997" gradientUnits="userSpaceOnUse">
<stop stop-color="#FF6B00"/>
<stop offset="1" stop-color="#FFA500"/>
</linearGradient>
<linearGradient id="paint2_linear_77_8730" x1="67.939" y1="7.25432" x2="77.788" y2="21.9997" gradientUnits="userSpaceOnUse">
<stop stop-color="#FF6B00"/>
<stop offset="1" stop-color="#FFA500"/>
</linearGradient>
</defs>
</svg>
