<svg width="47" height="42" viewBox="0 0 47 42" fill="none" xmlns="http://www.w3.org/2000/svg">
<path d="M23.0054 5.55985L33.5589 5.44904H33.6433C33.9475 5.39116 34.2186 5.22312 34.4031 4.97808C34.5699 4.71367 34.6301 4.39746 34.572 4.09156V3.95304L32.8553 1.18268C32.7697 0.956273 32.6162 0.760836 32.4151 0.622297C32.2141 0.483757 31.975 0.408664 31.7296 0.406982H31.4482L23.7653 3.5929C23.492 3.65282 23.2512 3.81085 23.0899 4.03615C22.9231 4.30056 22.8629 4.61678 22.921 4.92267L23.0054 5.55985ZM32.7146 3.92534L26.8328 3.98075L31.5326 2.0415L32.7146 3.92534Z" fill="white"/>
<path d="M23.906 5.55986L24.0467 4.92267C24.0938 4.61338 24.0237 4.29786 23.8498 4.03616C23.6992 3.81264 23.4677 3.6541 23.2025 3.5929L15.5196 0.406987H15.21C14.9674 0.406314 14.7308 0.480902 14.5338 0.620154C14.3368 0.759405 14.1893 0.956239 14.1124 1.18269L12.3676 3.95305V4.09157C12.3392 4.24261 12.3415 4.39769 12.3743 4.54786C12.4071 4.69803 12.4698 4.84032 12.5588 4.96652C12.6477 5.09272 12.7612 5.20033 12.8926 5.28315C13.024 5.36596 13.1708 5.42234 13.3244 5.44904H13.4652L23.906 5.55986ZM15.3788 2.0415L20.1068 3.98075L14.225 3.92534L15.3788 2.0415Z" fill="white"/>
<path d="M9.10192 4.28546H37.8658C38.5491 4.28546 39.103 4.53643 39.103 4.84602V6.7723C39.103 7.08189 38.5491 7.33286 37.8658 7.33286H9.10192C8.41866 7.33286 7.86477 7.08189 7.86477 6.7723V4.84602C7.86477 4.53643 8.41866 4.28546 9.10192 4.28546Z" fill="#6B9FF4"/>
<g clip-path="url(#clip0_26_11279)">
<path d="M9.07491 11.7377H37.8647C38.1295 11.7377 38.3916 11.686 38.6359 11.5854C38.8802 11.4848 39.1017 11.3374 39.2876 11.1518C39.4736 10.9663 39.6202 10.7461 39.7189 10.5043C39.8176 10.2624 39.8666 10.0037 39.8628 9.74305V5.55981C39.8629 5.03556 39.6533 4.53237 39.2793 4.15908C38.9054 3.7858 38.3972 3.57244 37.8647 3.56516H9.07491C8.53752 3.56516 8.02213 3.7753 7.64213 4.14938C7.26213 4.52345 7.04865 5.0308 7.04865 5.55981V9.74305C7.04865 10.2721 7.26213 10.7794 7.64213 11.1535C8.02213 11.5276 8.53752 11.7377 9.07491 11.7377ZM37.8647 5.11655C37.9841 5.11655 38.0987 5.16325 38.1831 5.24638C38.2676 5.32951 38.315 5.44225 38.315 5.55981V9.74305C38.3152 9.86331 38.2687 9.97908 38.185 10.0667C38.1012 10.1542 37.9867 10.2069 37.8647 10.214H9.07491C8.95297 10.2069 8.83839 10.1542 8.75467 10.0667C8.67095 9.97908 8.62442 9.86331 8.62463 9.74305V5.55981C8.62463 5.44225 8.67207 5.32951 8.75652 5.24638C8.84096 5.16325 8.95549 5.11655 9.07491 5.11655H37.8647Z" fill="white"/>
</g>
<path d="M27.058 5.61524C27.058 4.9139 26.8468 4.22831 26.451 3.64516C26.0551 3.06201 25.4925 2.60751 24.8343 2.33911C24.1761 2.07072 23.4518 2.0005 22.753 2.13732C22.0543 2.27415 21.4124 2.61188 20.9086 3.1078C20.4048 3.60373 20.0618 4.23557 19.9228 4.92344C19.7838 5.61131 19.8551 6.3243 20.1278 6.97226C20.4004 7.62022 20.8621 8.17404 21.4545 8.56368C22.0469 8.95333 22.7433 9.1613 23.4558 9.1613C23.9289 9.1613 24.3973 9.06958 24.8343 8.89137C25.2714 8.71317 25.6685 8.45197 26.003 8.12269C26.3375 7.7934 26.6028 7.40249 26.7838 6.97226C26.9649 6.54203 27.058 6.08092 27.058 5.61524Z" fill="#6B9FF4"/>
<path d="M23.4558 9.93701C24.3241 9.93701 25.1729 9.68355 25.8949 9.20866C26.6168 8.73378 27.1795 8.05882 27.5118 7.26912C27.8441 6.47942 27.931 5.61046 27.7617 4.77212C27.5923 3.93378 27.1741 3.16371 26.5601 2.5593C25.9461 1.95489 25.1639 1.54329 24.3123 1.37653C23.4606 1.20978 22.5779 1.29536 21.7757 1.62246C20.9735 1.94957 20.2878 2.5035 19.8054 3.21421C19.323 3.92492 19.0655 4.76049 19.0655 5.61525C19.0655 6.76145 19.5281 7.86071 20.3514 8.6712C21.1747 9.48168 22.2914 9.93701 23.4558 9.93701ZM23.4558 2.84489C24.0203 2.83941 24.5737 2.99955 25.0454 3.30489C25.5171 3.61023 25.8858 4.04693 26.1044 4.55932C26.323 5.07172 26.3817 5.63659 26.2729 6.18193C26.1641 6.72727 25.8929 7.22837 25.4937 7.62135C25.0944 8.01432 24.5854 8.28137 24.0314 8.38845C23.4774 8.49553 22.9036 8.43779 22.3831 8.22259C21.8626 8.00738 21.419 7.64446 21.1088 7.1801C20.7986 6.71574 20.636 6.17098 20.6415 5.61525C20.6488 4.88274 20.9477 4.18228 21.4739 3.66429C22.0001 3.1463 22.7117 2.85211 23.4558 2.84489Z" fill="white"/>
<path d="M41.5526 40.7157H8.63557H5.55587C4.57734 40.7157 3.78409 39.9225 3.78409 38.9439L3.7841 16.4751H43.3243V38.9439C43.3243 39.9225 42.5311 40.7157 41.5526 40.7157Z" stroke="white" stroke-width="1.75522" stroke-linecap="round"/>
<path d="M19.3188 16.3365H27.6208V40.5633H19.3188V16.3365Z" fill="#6B9FF4"/>
<path d="M18.5308 41.3252H28.4089V15.5608H18.5308V41.3252ZM26.8329 39.8015H20.0787V17.1122H26.8329V39.8015Z" fill="white"/>
<path d="M39.9474 37.3341C39.955 37.4616 40.0176 37.5817 40.1223 37.6696C40.2271 37.7574 40.3659 37.8063 40.5102 37.8061C40.5827 37.8097 40.6552 37.8001 40.7234 37.778C40.7915 37.7559 40.8539 37.7217 40.9066 37.6775C40.9593 37.6333 41.0012 37.58 41.0298 37.521C41.0585 37.4619 41.0732 37.3983 41.0731 37.3341V16.6963C41.0731 16.6308 41.0585 16.5661 41.0302 16.5056C41.0019 16.4452 40.9605 16.3902 40.9082 16.344C40.8559 16.2977 40.7939 16.261 40.7256 16.236C40.6573 16.2109 40.5841 16.198 40.5102 16.198C40.3633 16.2044 40.2242 16.2589 40.1202 16.351C40.0161 16.4431 39.9545 16.5662 39.9474 16.6963V37.3341Z" fill="white" fill-opacity="0.44"/>
<path d="M3.30575 17.2507H43.634C44.3008 17.2435 44.9379 16.9775 45.4068 16.5107C45.8757 16.0439 46.1387 15.4139 46.1387 14.7574V8.88426C46.1387 8.23034 45.8748 7.6032 45.4051 7.1408C44.9353 6.67841 44.2983 6.41864 43.634 6.41864H3.30575C2.64146 6.41864 2.00439 6.67841 1.53467 7.1408C1.06495 7.6032 0.801064 8.23034 0.801064 8.88426V14.7574C0.801022 15.4139 1.06401 16.0439 1.53294 16.5107C2.00186 16.9775 2.63889 17.2435 3.30575 17.2507ZM43.634 7.94234C43.8828 7.94955 44.1191 8.05196 44.2925 8.22783C44.4659 8.4037 44.5628 8.63918 44.5627 8.88426V14.7574C44.5628 15.0025 44.4659 15.238 44.2925 15.4139C44.1191 15.5897 43.8828 15.6921 43.634 15.6993H3.30575C3.05198 15.6993 2.8086 15.6001 2.62916 15.4235C2.44971 15.2468 2.3489 15.0072 2.3489 14.7574V8.88426C2.3489 8.63445 2.44971 8.39487 2.62916 8.21822C2.8086 8.04158 3.05198 7.94234 3.30575 7.94234H43.634Z" fill="white"/>
<path d="M18.2212 7.30515H28.7465V16.2756H18.2212V7.30515Z" fill="#6B9FF4"/>
<path d="M17.4051 17.0568H29.5064V6.55716H17.4051V17.0568ZM27.9586 15.5331H18.9811V8.08086H27.9586V15.5331Z" fill="white"/>
<path d="M42.5646 14.0926C42.5714 14.23 42.6299 14.36 42.7287 14.4573C42.8276 14.5546 42.9597 14.6122 43.0993 14.6189C43.2389 14.6122 43.371 14.5546 43.4698 14.4573C43.5686 14.36 43.6271 14.23 43.634 14.0926V9.41064C43.634 9.27104 43.5776 9.13716 43.4774 9.03844C43.3771 8.93973 43.2411 8.88428 43.0993 8.88428C42.9575 8.88428 42.8214 8.93973 42.7212 9.03844C42.6209 9.13716 42.5646 9.27104 42.5646 9.41064V14.0926Z" fill="white" fill-opacity="0.44"/>
<defs>
<clipPath id="clip0_26_11279">
<rect width="32.9268" height="3.8785" fill="white" transform="matrix(-1 0 0 1 39.9473 3.45438)"/>
</clipPath>
</defs>
</svg>
