<svg width="12" height="16" viewBox="0 0 12 16" fill="none" xmlns="http://www.w3.org/2000/svg">
<path d="M5.66083 3.50257C5.75951 3.50257 5.8335 3.42857 5.85817 3.34224C6.04316 2.25693 6.00616 2.18292 7.23945 1.9486C7.35046 1.93628 7.41212 1.84994 7.41212 1.76361C7.41212 1.66495 7.35046 1.57862 7.23945 1.55395C5.99383 1.33195 6.03084 1.2333 5.85817 0.184989C5.8335 0.0739803 5.75951 0 5.66083 0C5.56217 0 5.48819 0.0739803 5.46352 0.184989C5.25385 1.2333 5.31553 1.33195 4.08221 1.55395C3.98355 1.57862 3.90957 1.66495 3.90957 1.76361C3.90957 1.86227 3.98355 1.93628 4.08221 1.9486C5.31553 2.15827 5.25385 2.25693 5.46352 3.31756C5.48819 3.42857 5.56217 3.50257 5.66083 3.50257ZM2.51594 7.88076C2.63927 7.88076 2.76258 7.78211 2.78726 7.64645C3.0709 6.03082 2.97225 5.91984 4.77286 5.64849C4.92087 5.62384 5.01953 5.51283 5.01953 5.37717C5.01953 5.24151 4.92087 5.11817 4.77286 5.10585C2.97225 4.8222 3.0709 4.69887 2.78726 3.12024C2.76258 2.98458 2.6516 2.87357 2.51594 2.87357C2.36792 2.87357 2.26927 2.97223 2.23226 3.12024C1.93629 4.69887 2.03495 4.8222 0.246659 5.10585C0.0986627 5.11817 0 5.24151 0 5.37717C0 5.52518 0.0986627 5.62384 0.258993 5.64849C2.03495 5.91984 1.93629 6.03082 2.23226 7.62177C2.26927 7.76978 2.3556 7.88076 2.51594 7.88076ZM6.8818 15.0339C7.07914 15.0339 7.2148 14.8982 7.25181 14.7009C7.85613 11.1367 8.13977 10.7544 11.6547 10.2857C11.8643 10.261 12 10.113 12 9.90337C12 9.71838 11.8643 9.5704 11.6547 9.53339C8.1521 9.07708 7.7698 8.69475 7.25181 5.13053C7.22713 4.93318 7.07914 4.7852 6.8818 4.7852C6.68449 4.7852 6.53647 4.92086 6.4995 5.11817C5.88285 8.69475 5.59918 9.07708 2.0966 9.53339C1.88694 9.5704 1.75128 9.71838 1.75128 9.90337C1.75128 10.113 1.88694 10.261 2.0966 10.2857C5.59918 10.5817 6.00616 11.112 6.4995 14.6886C6.52415 14.8982 6.65981 15.0339 6.8818 15.0339Z" fill="white"/>
</svg>
